<svg id="SvgjsSvg1306" width="288" height="288" xmlns="http://www.w3.org/2000/svg" version="1.1" xmlns:xlink="http://www.w3.org/1999/xlink" xmlns:svgjs="http://svgjs.com/svgjs"><defs id="SvgjsDefs1307"></defs><g id="SvgjsG1308"><svg xmlns="http://www.w3.org/2000/svg" data-name="Layer 1" viewBox="0 0 24 24" width="288" height="288"><path d="M9,11H3a1,1,0,0,0,0,2H5v5a1,1,0,0,0,2,0V13H9a1,1,0,0,0,0-2ZM21,5H9A1,1,0,0,0,9,7h5V18a1,1,0,0,0,2,0V7h5a1,1,0,0,0,0-2Z" fill="#f3f3f3" class="color000 svgShape"></path></svg></g></svg>