<svg id="SvgjsSvg1059" width="288" height="288" xmlns="http://www.w3.org/2000/svg" version="1.1" xmlns:xlink="http://www.w3.org/1999/xlink" xmlns:svgjs="http://svgjs.com/svgjs"><defs id="SvgjsDefs1060"></defs><g id="SvgjsG1061"><svg xmlns="http://www.w3.org/2000/svg" enable-background="new 0 0 32 32" viewBox="0 0 32 32" width="288" height="288"><path d="M3.59998,21.17999h7.82001v2.83997c0,0.60004,0.36005,1.14001,0.91003,1.38c0.19,0.08002,0.38995,0.12,0.58997,0.12c0.38,0,0.75-0.14996,1.04004-0.41998l1.32996-1.27997v3.06c0,0.67999,0.45001,1.26996,1.11005,1.44995l11.62,3.12006c0.12,0.02997,0.25,0.04999,0.38,0.04999c0.32996,0,0.64996-0.10999,0.91998-0.31c0.37-0.28003,0.58002-0.72003,0.58002-1.19V2c0-0.47003-0.21002-0.91003-0.58002-1.19c-0.37-0.28003-0.85004-0.38-1.29999-0.26001l-11.62,3.12C15.73999,3.84998,15.28998,4.44,15.28998,5.12v3.06l-1.32996-1.28003c-0.42999-0.41998-1.07001-0.53998-1.63-0.29999c-0.54999,0.23999-0.91003,0.78003-0.91003,1.38v2.84003H3.59998c-0.82996,0-1.5,0.66998-1.5,1.5v7.35999C2.09998,20.51001,2.77002,21.17999,3.59998,21.17999z M18.28998,6.26996l8.61005-2.31v24.08002l-8.61005-2.31v-4.81l3.97003-3.84003c0.28998-0.27997,0.45996-0.66998,0.45996-1.07996c0-0.41003-0.16998-0.79999-0.45996-1.08002l-3.97003-3.84003V6.26996z" fill="#f5f5f5" class="color000 svgShape"></path></svg></g></svg>